<?xml version="1.0" encoding="UTF-8"?>
<svg width="258px" height="48px" viewBox="0 0 258 48" version="1.1" xmlns="http://www.w3.org/2000/svg" xmlns:xlink="http://www.w3.org/1999/xlink">
    <title>Group</title>
    <g id="Page-1" stroke="none" stroke-width="1" fill="none" fill-rule="evenodd">
        <g id="Group" fill-rule="nonzero">
            <g id="Porta-Identity" transform="translate(49.297365, 12.854522)" fill="#2282E3">
                <path d="M4.55519518,11.4908472 L6.05400133,11.4908472 C7.4548463,11.4908472 8.503031,11.2141068 9.19855542,10.6606261 C9.89407985,10.1071454 10.2418421,9.30141467 10.2418421,8.24343385 C10.2418421,7.17565692 9.95040753,6.38706937 9.36753847,5.8776712 C8.78466941,5.36827303 7.87118134,5.11357394 6.62707427,5.11357394 L4.55519518,5.11357394 L4.55519518,11.4908472 Z M14.8411198,8.0817979 C14.8411198,10.3936819 14.118656,12.1618813 12.6737285,13.3863962 C11.228801,14.610911 9.17406513,15.2231684 6.50952085,15.2231684 L4.55519518,15.2231684 L4.55519518,22.864141 L0,22.864141 L0,1.38125273 L6.86218112,1.38125273 C9.46794869,1.38125273 11.4492137,1.94208052 12.8059761,3.06373611 C14.1627386,4.1853917 14.8411198,5.85807896 14.8411198,8.0817979 Z" id="Shape"></path>
                <path d="M22.2094369,14.6207071 C22.2094369,16.2468628 22.4763812,17.4762757 23.0102696,18.3089458 C23.5441581,19.1416159 24.4135636,19.5579509 25.6184862,19.5579509 C26.8136127,19.5579509 27.6732221,19.1440649 28.1973144,18.3162929 C28.7214068,17.4885208 28.983453,16.2566589 28.983453,14.6207071 C28.983453,12.9945514 28.7189578,11.7749346 28.1899674,10.9618568 C27.660977,10.1487789 26.7940205,9.74224001 25.5890979,9.74224001 C24.3939714,9.74224001 23.5319129,10.1463299 23.0029225,10.9545097 C22.4739321,11.7626895 22.2094369,12.9847553 22.2094369,14.6207071 Z M33.5680365,14.6207071 C33.5680365,17.2950475 32.862716,19.3865188 31.4520749,20.8951211 C30.0414338,22.4037234 28.077312,23.1580245 25.5597095,23.1580245 C23.9825344,23.1580245 22.5914855,22.8127113 21.3865629,22.122085 C20.1816404,21.4314586 19.2559071,20.4396016 18.6093633,19.1465139 C17.9628195,17.8534263 17.6395476,16.344824 17.6395476,14.6207071 C17.6395476,11.9365706 18.33997,9.84999731 19.740815,8.36098728 C21.14166,6.87197724 23.1106798,6.12747222 25.6478746,6.12747222 C27.2250497,6.12747222 28.6160985,6.47033638 29.8210211,7.15606468 C31.0259437,7.84179299 31.9516769,8.82630291 32.5982208,10.1095945 C33.2447646,11.392886 33.5680365,12.8965902 33.5680365,14.6207071 Z" id="Shape"></path>
                <path d="M46.5348355,6.12747222 C47.1421948,6.12747222 47.6466949,6.17155476 48.0483358,6.25971982 L47.7103697,10.4622547 C47.3479133,10.3642935 46.907088,10.315313 46.3878937,10.315313 C44.9576604,10.315313 43.8433519,10.6826674 43.0449682,11.4173763 C42.2465845,12.1520852 41.8473927,13.1806777 41.8473927,14.5031537 L41.8473927,22.864141 L37.3656684,22.864141 L37.3656684,6.43604996 L40.7600235,6.43604996 L41.4212615,9.19855542 L41.6416742,9.19855542 C42.1510724,8.27772027 42.8392497,7.53566428 43.7062062,6.97238746 C44.5731627,6.40911063 45.5160391,6.12747222 46.5348355,6.12747222 Z" id="Path"></path>
                <path d="M58.0469108,19.5873393 C58.8306003,19.5873393 59.7710277,19.4159072 60.868193,19.073043 L60.868193,22.4086214 C59.7514354,22.9082235 58.3799788,23.1580245 56.7538231,23.1580245 C54.9611334,23.1580245 53.6558006,22.704954 52.8378247,21.7988131 C52.0198488,20.8926721 51.6108608,19.5334606 51.6108608,17.7211787 L51.6108608,9.80101672 L49.4655109,9.80101672 L49.4655109,7.90546776 L51.9341328,6.4066616 L53.2272204,2.9388356 L56.0925851,2.9388356 L56.0925851,6.43604996 L60.6918628,6.43604996 L60.6918628,9.80101672 L56.0925851,9.80101672 L56.0925851,17.7211787 C56.0925851,18.3579264 56.2713643,18.8281401 56.6289226,19.1318197 C56.986481,19.4354994 57.4591437,19.5873393 58.0469108,19.5873393 Z" id="Path"></path>
                <path d="M74.7166426,22.864141 L73.8496861,20.6306259 L73.7321327,20.6306259 C72.9778316,21.5808494 72.2014891,22.2396384 71.4031055,22.6069928 C70.6047218,22.9743473 69.5638842,23.1580245 68.2805927,23.1580245 C66.7034175,23.1580245 65.4617595,22.7074031 64.5556185,21.8061601 C63.6494776,20.9049172 63.1964071,19.6216257 63.1964071,17.9562855 C63.1964071,16.2125764 63.8062155,14.9268358 65.0258322,14.0990638 C66.245449,13.2712918 68.0846703,12.8133232 70.5434961,12.7251581 L73.3941666,12.6369931 L73.3941666,11.9169784 C73.3941666,10.2516382 72.5419043,9.41896809 70.8373796,9.41896809 C69.5246997,9.41896809 67.981811,9.8157109 66.2087136,10.6091965 L64.7246016,7.58219584 C66.6152525,6.59278786 68.7116219,6.09808387 71.0137098,6.09808387 C73.2178365,6.09808387 74.9076669,6.57809368 76.0832012,7.53811331 C77.2587354,8.49813294 77.8465025,9.95775462 77.8465025,11.9169784 L77.8465025,22.864141 L74.7166426,22.864141 Z M73.3941666,15.2525568 L71.6602536,15.3113335 C70.3573698,15.3505179 69.3875541,15.5856248 68.7508063,16.016654 C68.1140586,16.4476832 67.7956848,17.1040232 67.7956848,17.9856739 C67.7956848,19.2493732 68.5205976,19.8812228 69.9704231,19.8812228 C71.0088117,19.8812228 71.8390328,19.5824412 72.4610863,18.984878 C73.0831398,18.3873147 73.3941666,17.5938291 73.3941666,16.6044211 L73.3941666,15.2525568 Z" id="Shape"></path>
                <polygon id="Path" points="90.8198355 22.864141 90.8198355 1.38125273 95.3750306 1.38125273 95.3750306 22.864141"></polygon>
                <path d="M105.726266,23.1580245 C103.796431,23.1580245 102.280481,22.4086214 101.178418,20.9098153 C100.076354,19.4110091 99.5253228,17.334232 99.5253228,14.6794838 C99.5253228,11.9855512 100.086151,9.88673276 101.207806,8.38302854 C102.329462,6.87932433 103.874799,6.12747222 105.843819,6.12747222 C107.9108,6.12747222 109.487975,6.93075395 110.575345,8.53731741 L110.722286,8.53731741 C110.496976,7.31280258 110.38432,6.22053535 110.38432,5.26051572 L110.38432,0 L114.880739,0 L114.880739,22.864141 L111.442301,22.864141 L110.575345,20.7334851 L110.38432,20.7334851 C109.365524,22.3498447 107.812839,23.1580245 105.726266,23.1580245 Z M107.298543,19.5873393 C108.444689,19.5873393 109.284706,19.2542712 109.818594,18.5881352 C110.352483,17.9219991 110.643917,16.7905474 110.692898,15.19378 L110.692898,14.7088722 C110.692898,12.9455708 110.421056,11.6818715 109.877371,10.9177742 C109.333687,10.153677 108.449587,9.77162837 107.225072,9.77162837 C106.225868,9.77162837 105.449526,10.1953105 104.896045,11.0426748 C104.342564,11.890039 104.065824,13.1219009 104.065824,14.7382605 C104.065824,16.3546201 104.345013,17.5668898 104.903392,18.3750696 C105.461771,19.1832494 106.260154,19.5873393 107.298543,19.5873393 Z" id="Shape"></path>
                <path d="M126.466285,9.31610885 C125.516062,9.31610885 124.771556,9.6173395 124.23277,10.2198008 C123.693983,10.8222621 123.385406,11.6769734 123.307037,12.7839349 L129.596145,12.7839349 C129.576553,11.6769734 129.287567,10.8222621 128.729188,10.2198008 C128.17081,9.6173395 127.416509,9.31610885 126.466285,9.31610885 Z M127.098135,23.1580245 C124.453183,23.1580245 122.386202,22.4282137 120.897192,20.968592 C119.408182,19.5089703 118.663677,17.4419893 118.663677,14.7676489 C118.663677,12.0149395 119.351854,9.88673276 120.728209,8.38302854 C122.104563,6.87932433 124.007459,6.12747222 126.436897,6.12747222 C128.758577,6.12747222 130.565961,6.78871023 131.859048,8.11118625 C133.152136,9.43366227 133.79868,11.2606384 133.79868,13.5921146 L133.79868,15.766853 L123.204178,15.766853 C123.253158,17.0403484 123.630309,18.0346545 124.335629,18.7497711 C125.04095,19.4648878 126.030358,19.8224461 127.303853,19.8224461 C128.293261,19.8224461 129.22879,19.7195869 130.110441,19.5138684 C130.992092,19.3081499 131.912927,18.9799799 132.872947,18.5293584 L132.872947,21.9971845 C132.089257,22.3890292 131.251689,22.6804637 130.360242,22.871488 C129.468795,23.0625124 128.381426,23.1580245 127.098135,23.1580245 Z" id="Shape"></path>
                <path d="M152.701927,22.864141 L148.220202,22.864141 L148.220202,13.2688427 C148.220202,12.0835124 148.009586,11.1945146 147.588353,10.6018494 C147.16712,10.0091842 146.496086,9.71285165 145.57525,9.71285165 C144.321347,9.71285165 143.415206,10.1316357 142.856827,10.9692039 C142.298449,11.806772 142.019259,13.1953718 142.019259,15.1350033 L142.019259,22.864141 L137.537535,22.864141 L137.537535,6.43604996 L140.961278,6.43604996 L141.56374,8.53731741 L141.813541,8.53731741 C142.313143,7.7438318 143.00132,7.14381953 143.878073,6.73728061 C144.754825,6.33074169 145.751581,6.12747222 146.868338,6.12747222 C148.778581,6.12747222 150.228407,6.64421748 151.217815,7.677708 C152.207223,8.71119852 152.701927,10.2026576 152.701927,12.1520852 L152.701927,22.864141 Z" id="Path"></path>
                <path d="M164.331555,19.5873393 C165.115245,19.5873393 166.055672,19.4159072 167.152838,19.073043 L167.152838,22.4086214 C166.03608,22.9082235 164.664624,23.1580245 163.038468,23.1580245 C161.245778,23.1580245 159.940445,22.704954 159.122469,21.7988131 C158.304493,20.8926721 157.895506,19.5334606 157.895506,17.7211787 L157.895506,9.80101672 L155.750156,9.80101672 L155.750156,7.90546776 L158.218777,6.4066616 L159.511865,2.9388356 L162.37723,2.9388356 L162.37723,6.43604996 L166.976508,6.43604996 L166.976508,9.80101672 L162.37723,9.80101672 L162.37723,17.7211787 C162.37723,18.3579264 162.556009,18.8281401 162.913567,19.1318197 C163.271126,19.4354994 163.743788,19.5873393 164.331555,19.5873393 Z" id="Path"></path>
                <path d="M170.377397,2.18943252 C170.377397,0.72981084 171.190474,0 172.81663,0 C174.442786,0 175.255864,0.72981084 175.255864,2.18943252 C175.255864,2.88495695 175.052594,3.4261925 174.646055,3.81313919 C174.239516,4.20008588 173.629708,4.39355922 172.81663,4.39355922 C171.190474,4.39355922 170.377397,3.65885032 170.377397,2.18943252 Z M175.050145,22.864141 L170.568421,22.864141 L170.568421,6.43604996 L175.050145,6.43604996 L175.050145,22.864141 Z" id="Shape"></path>
                <path d="M186.767939,19.5873393 C187.551629,19.5873393 188.492056,19.4159072 189.589221,19.073043 L189.589221,22.4086214 C188.472464,22.9082235 187.101007,23.1580245 185.474851,23.1580245 C183.682162,23.1580245 182.376829,22.704954 181.558853,21.7988131 C180.740877,20.8926721 180.331889,19.5334606 180.331889,17.7211787 L180.331889,9.80101672 L178.186539,9.80101672 L178.186539,7.90546776 L180.655161,6.4066616 L181.948249,2.9388356 L184.813613,2.9388356 L184.813613,6.43604996 L189.412891,6.43604996 L189.412891,9.80101672 L184.813613,9.80101672 L184.813613,17.7211787 C184.813613,18.3579264 184.992393,18.8281401 185.349951,19.1318197 C185.707509,19.4354994 186.180172,19.5873393 186.767939,19.5873393 Z" id="Path"></path>
                <path d="M190.653736,6.43604996 L195.561591,6.43604996 L198.662063,15.6786879 C198.926558,16.4819696 199.107786,17.4321932 199.205748,18.5293584 L199.293913,18.5293584 C199.40167,17.5203582 199.612287,16.5701347 199.925762,15.6786879 L202.967457,6.43604996 L207.772453,6.43604996 L200.822107,24.9654084 C200.185359,26.6797292 199.276769,27.9630207 198.096337,28.815283 C196.915905,29.6675454 195.537101,30.0936765 193.959926,30.0936765 C193.186033,30.0936765 192.426833,30.0104095 191.682328,29.8438755 L191.682328,26.2878844 C192.221115,26.415234 192.808882,26.4789087 193.44563,26.4789087 C194.239115,26.4789087 194.932191,26.2364548 195.524856,25.7515469 C196.117521,25.2666391 196.580388,24.5343792 196.913456,23.5547673 L197.177951,22.7465875 L190.653736,6.43604996 Z" id="Path"></path>
            </g>
            <g id="secure-shield" fill="#2391EA">
                <path d="M40.1918394,8.28853445 C33.5876367,6.47897637 26.9446217,3.661327 20.9809175,0.140273095 C20.6641371,-0.0467576983 20.2710443,-0.0467576983 19.9543575,0.140273095 C13.8186225,3.762483 7.53457536,6.42769524 0.742873186,8.28853445 C0.304124258,8.40862791 0,8.80743943 0,9.26240707 L0,19.5791944 C0,30.2031997 4.90114428,37.2355575 9.01282175,41.2640789 C13.4393109,45.6014121 18.5955484,48 20.4676375,48 C22.3395392,48 27.4957766,45.6014121 31.9222658,41.2640789 C36.0338495,37.2356513 40.9347126,30.2032934 40.9347126,19.5791944 L40.9347126,9.26231332 C40.9347126,8.80743943 40.6305883,8.40862791 40.1918394,8.28853445 Z M38.9153425,19.5791006 C38.9153425,29.5018577 34.3440099,36.0638729 30.5088943,39.8215512 C26.1559986,44.0866971 21.5019788,45.9804424 20.4676375,45.9804424 C19.4332963,45.9804424 14.7789952,44.0866971 10.4260058,39.8215512 C6.59098391,36.0637791 2.01946382,29.5018577 2.01946382,19.5791006 L2.01946382,10.0288115 C8.51426046,8.18475346 14.5628082,5.61122849 20.467825,2.17970562 C26.2253735,5.52019746 32.5757017,8.22169087 38.9153425,10.0284365 L38.9153425,19.5791006 Z" id="Shape"></path>
                <path d="M11.5178156,9.91584298 C11.3134411,9.396938 10.7272238,9.14203237 10.2082251,9.34650062 C8.40447948,10.0572176 6.553109,10.7114035 4.70558226,11.2909646 C4.28455204,11.4231518 3.99805274,11.8131508 3.99805274,12.2543373 L3.99805274,16.153484 C3.99805274,16.7111076 4.45020789,17.163169 5.00773777,17.163169 C5.56526766,17.163169 6.01742281,16.7111076 6.01742281,16.153484 L6.01742281,12.9922417 C7.67482501,12.455993 9.33044597,11.8628382 10.9484733,11.225246 C11.4673783,11.0209653 11.7222839,10.434748 11.5178156,9.91584298 Z" id="Path"></path>
                <path d="M13.4358422,10.1073738 C13.5713106,10.1073738 13.7088415,10.0800926 13.8407475,10.0225302 L13.8593099,10.0144677 C14.3701524,9.79059328 14.6002144,9.19593849 14.3763399,8.68528348 C14.1522779,8.17444098 13.5542482,7.94334779 13.0439682,8.16703475 L13.0276557,8.17406598 C12.5165319,8.39728419 12.28572,8.99147024 12.5089382,9.50240649 C12.6745941,9.88171806 13.0463119,10.1073738 13.4358422,10.1073738 Z" id="Path"></path>
                <path d="M32.4975144,32.5577252 C32.0309218,32.2527572 31.4052358,32.3839131 31.0998928,32.8506932 C30.2678636,34.1241901 29.291741,35.3436871 28.1982437,36.4749656 C27.2989959,37.4051509 26.3245607,38.2721487 25.302032,39.0516781 C24.8586893,39.3897398 24.773377,40.0233007 25.1113449,40.4668309 C25.3101882,40.7273615 25.6108437,40.8644237 25.914968,40.8644237 C26.12853,40.8644237 26.3436857,40.7970176 26.5264977,40.6575179 C27.6294638,39.8164887 28.6803987,38.8815223 29.6499589,37.8785872 C30.8322372,36.6557152 31.8887971,35.3357184 32.7904824,33.955253 C33.095638,33.4883792 32.9642945,32.8626932 32.4975144,32.5577252 Z" id="Path"></path>
                <path d="M22.9571627,40.6352055 L22.8992253,40.6693304 C22.4166953,40.9487985 22.2517894,41.566422 22.5311637,42.048952 C22.718382,42.3723887 23.0572875,42.5529508 23.4059429,42.5529508 C23.5775049,42.5529508 23.751692,42.5091697 23.9107854,42.4168261 L23.977629,42.377545 C24.4588465,42.0957332 24.6204711,41.4772659 24.3386593,40.9960483 C24.05666,40.5150183 23.438099,40.3536749 22.9571627,40.6352055 Z" id="Path"></path>
                <path d="M13.5850918,21.9392511 C12.9651246,21.3191901 12.1405954,20.977941 11.26366,20.977941 C10.3867246,20.977941 9.56210166,21.3192839 8.94185317,21.9392511 C7.66188754,23.219498 7.66188754,25.3026179 8.94185317,26.582771 L14.9039636,32.544694 C15.5240246,33.1645675 16.3485538,33.5059104 17.2255829,33.5059104 C18.1026121,33.5059104 18.9271413,33.1645675 19.547296,32.5445065 L31.9936094,20.0980994 C33.2734813,18.8175712 33.2734813,16.7347326 31.9934219,15.4549545 C31.3733609,14.8348935 30.5488317,14.4936443 29.6717088,14.4936443 C28.7946797,14.4936443 27.9701505,14.8349872 27.3499957,15.4549545 L17.2254892,25.579461 L13.5850918,21.9392511 Z M28.7779922,16.882951 C29.0165854,16.6443578 29.3341159,16.5130144 29.6718026,16.5130144 C30.0096767,16.5130144 30.326926,16.6443578 30.5657066,16.882951 C31.0583617,17.375606 31.0583617,18.1775416 30.5655191,18.6703841 L18.1193933,31.1166037 C17.8808001,31.3551969 17.5632696,31.4865403 17.2255829,31.4865403 C16.8878963,31.4865403 16.5703658,31.3551969 16.3316789,31.1166037 L10.3697559,25.1548683 C9.87691339,24.6620257 9.87691339,23.8600902 10.3695684,23.3674351 C10.6082554,23.128842 10.9257858,22.997311 11.2635663,22.997311 C11.6013467,22.997311 11.9186897,23.1286545 12.1572828,23.3672476 L16.5114909,27.7215495 C16.7009592,27.9108303 16.9576461,28.0172363 17.2254892,28.0172363 C17.4933323,28.0172363 17.7500192,27.910924 17.9393,27.7215495 L28.7779922,16.882951 Z" id="Shape"></path>
            </g>
        </g>
    </g>
</svg>